<?xml version="1.0" standalone="no"?>
<svg version="1" xmlns="http://www.w3.org/2000/svg" width="2730.7" height="2730.7" viewBox="0 0 2048 2048">
  <path d="M186 239c0 .5-1 1-2.2 1-1.3 0-3.4.9-4.8 2a9.7 9.7 0 0 1-3.7 2c-.7 0-1.3.4-1.3 1 0 .5-.6 1-1.4 1a197.4 197.4 0 0 0-31.8 32.2c-1.5 1.4-2.8 3-2.8 3.6a12 12 0 0 1-3 4c-1.6 1.8-3 3.8-3 4.5 0 .7-.9 1.9-2 2.7-1.1.8-2 1.9-2 2.5 0 .5-1.4 2.6-3 4.5s-3 3.9-3 4.3c0 .4-.9 1.7-2 2.9s-2 2.8-2 3.5c0 .7-.4 1.3-1 1.3-.5 0-1 .6-1 1.3 0 .7-.8 2.2-1.7 3.3-1 1.1-2.4 3-3 4.2l-2.5 4.4c-.7 1.2-2.1 3.1-3 4.2-1 1.1-1.8 2.6-1.8 3.3 0 .7-.4 1.3-1 1.3-.5 0-1 .9-1 2s-.4 2-1 2c-.5 0-1 .9-1 2s-.4 2-1 2c-.5 0-1 .6-1 1.3 0 .7-.9 2.3-2 3.5-1.1 1.2-2 2.8-2 3.6 0 .8-.3 1.6-.7 1.8a25 25 0 0 0-5 8c-.3 1-.9 1.8-1.4 1.8-.5 0-.9.9-.9 2s-.4 2-1 2c-.5 0-1 .9-1 2s-.4 2-1 2c-.5 0-1 .9-1 1.9 0 1.1-.3 2.1-.8 2.3-1 .4-13.2 25-13.2 26.5 0 .7-.4 1.3-1 1.3-.5 0-1 .9-1 2s-.4 2-1 2c-.5 0-1 .9-1 2s-.4 2-1 2c-.5 0-1 .9-1 2s-.4 2-1 2c-.5 0-1 .9-1 2s-.4 2-1 2c-.5 0-1 .9-1 2s-.4 2-1 2c-.5 0-1 .7-1 1.5a9 9 0 0 1-1 3.5l-2 4a11 11 0 0 0-1 3.5c0 .8-.4 1.5-1 1.5-.5 0-1 .9-1 2s-.4 2-1 2c-.5 0-1 .9-1 2s-.9 3.5-2 5.5-2 4.2-2 5c0 .8-.4 1.5-1 1.5-.5 0-1 .9-1 1.9 0 1.1-.4 2.3-1 2.6-.5.3-1 1.7-1 3.1 0 1.3-.4 2.4-1 2.4-.5 0-1 .9-1 1.9 0 1.1-.4 2.3-1 2.6-.5.3-1 1.7-1 3.1 0 1.3-.4 2.4-1 2.4-.5 0-1 .9-1 2a10 10 0 0 1-.9 3.8l-2 4.4-2.2 5.5c-.6 1.6-1.5 3.6-2 4.5a10 10 0 0 0-.9 3.8c0 1.1-.4 2-1 2-.5 0-1 1.3-1 3 0 1.6-.4 3-1 3-.5 0-1 1.3-1 3 0 1.6-.4 3-1 3-.5 0-1 1.3-1 3 0 1.6-.4 3-1 3-.5 0-1 1.3-1 3 0 1.6-.4 3-1 3-.5 0-1 1.3-1 2.9 0 1.7-.4 3.3-1 3.6-.5.3-1 1.9-1 3.5s-.4 3.2-1 3.5c-.5.3-1 1.7-1 3s-.4 2.7-1 3c-.5.3-1 1.9-1 3.5s-.4 3.2-1 3.5c-.5.3-1 2.4-1 4.5s-.4 4.2-1 4.5c-.5.3-1 2.4-1 4.5s-.5 4.2-1 4.5c-.6.3-1 2.8-1 5.4 0 2.6-.4 5.1-.9 5.6-.5.6-1.2 4.6-1.6 9-1 10.6-1 675.3-.1 687.5.5 5.2 1.2 9.9 1.7 10.4.5.6.9 3.2.9 5.8 0 2.6.5 4.8 1 4.8.6 0 1 1.8 1 4s.5 4 1 4c.6 0 1 1.1 1 2.5s.4 3.3.9 4.3c.5.9 1.5 3.8 2.3 6.4.7 2.7 1.6 4.8 2 4.8.4 0 .8.7.8 1.5a9 9 0 0 0 1 3.5l2 4a11 11 0 0 1 1 3.5c0 .8.5 1.5 1 1.5.6 0 1 .9 1 2s.5 2 1 2c.6 0 1 .9 1 2s.5 2 1 2c.6 0 1 .6 1 1.3 0 .7.8 2.2 1.8 3.3.9 1 2.3 3.1 3.1 4.7.8 1.5 1.8 2.7 2.3 2.7.4 0 .8.6.8 1.4 0 .7 1.3 2.7 3 4.4 1.6 1.8 3 3.6 3 4.1 0 1.2 18.6 20.1 19.8 20.1a12 12 0 0 1 4 3c1.8 1.6 3.6 3 4 3a103.6 103.6 0 0 0 23 12c.6 0 1.2.4 1.2 1 0 .5 1.4 1 3 1 1.7 0 3 .4 3 1 0 .5 1.5 1 3.3 1 1.8 0 3.7.4 4.2.9 1.7 1.5 9.3 2.3 28.8 2.7 10.6.3 18.7.9 18.7 1.5 0 .5-.8.9-1.7.9-1.6 0-6.3 1.3-10.8 3-1.1.5-5.4 1.8-9.5 3a91.8 91.8 0 0 0-9.8 3.1c-1.3.5-3.2.9-4.2.9-2.8 0-9.1 3.7-11.7 6.8-2.2 2.6-2.3 3.3-2.3 26v23.3l4.4 4.3c3.7 3.8 5.2 4.5 9.7 5.1 9.1 1.1 114.1.1 116.9-1.2 1.4-.6 5.9-2.1 10-3.3l9.5-3 6.5-2c2.5-.6 5.3-1.6 6.2-2.1 1-.5 2.7-.9 3.8-.9a10 10 0 0 0 3.8-.9c2.3-1.2 26.8-9.1 28.1-9.1.7 0 1.1 2.6 1.1 6.7 0 6.7 2 24.2 4.1 35.8l1.6 10.5c.3 2.5.9 4.9 1.4 5.4.5.6.9 2.7.9 4.7 0 2.1.5 4.1 1 4.4.6.3 1 2.1 1 4s.5 3.7 1 4c.6.3 1 1.6 1 2.8a253.4 253.4 0 0 0 12 35.9c0 1 .4 2.6.9 3.6l1.9 4.2c2.9 7.4 18.3 37.5 22.2 43.5 2.4 3.8 5.2 8.2 6 9.7 1.8 3.4 17.7 25.5 22.8 31.9a571 571 0 0 0 21.2 24.2c7.1 7.7 40 36.7 41.5 36.7.4 0 2.3 1.3 4.3 2.8 10.5 8 15 11.2 15.9 11.2.5 0 1.8.9 2.8 2 1 1.1 2.2 2 2.8 2 .5 0 2.1.8 3.5 1.9l6.5 4 7.5 4.3c7.3 4.3 28.3 14.2 40.2 19l4.2 1.9c1 .5 2.7.9 3.7.9 1.1 0 2.3.4 2.6 1 .3.6 1.6 1 2.9 1 1.2 0 2.6.4 3.2.8 1 .9 4.1 1.9 15.4 5.2l9.8 3.1c1.3.5 3.5.9 5 .9 1.6 0 3.2.4 3.8.9a14 14 0 0 0 4.9 1.5l10 1.6a320 320 0 0 0 66 5.4c24.8 0 34.1-.6 53.5-3.4l11.5-1.6c2.8-.3 5.4-1 5.9-1.5.6-.5 2.9-.9 5.2-.9 2.4 0 4.6-.5 4.9-1 .3-.6 2.1-1 4-1s3.7-.5 4-1c.3-.6 1.7-1 3-1s3.4-.4 4.7-.9c1.3-.6 5.7-2 9.8-3.2 4.1-1.2 7.9-2.6 8.4-3.1.6-.4 1.8-.8 2.8-.8 1 0 2.6-.4 3.6-.9a385.2 385.2 0 0 0 63.7-31.1c.3 0 2.5-1.2 4.8-2.8l5.8-3.7c4.7-2.9 15.4-10.8 29.2-21.5 5.1-3.9 30.5-27 30.9-28 .2-.5 4.1-5 8.8-10.1a242.6 242.6 0 0 0 29-36.8c0-.4.9-1.6 2-2.6s2-2.2 2-2.7a384.2 384.2 0 0 0 39.1-79.9l1.2-3.7 13.1-.6c50.1-2.5 73.2-5.4 100.6-12.3l12.9-3.3c3.9-1 6 .7 6.1 4.7 0 1.2.4 2.4.9 2.7.5.3 1.1 1.6 1.4 2.8.7 3.2 7.6 23 8.7 25 .6 1 1 2.7 1 3.7 0 1.1.5 2.3 1 2.6.6.3 1 1.6 1 2.9 0 1.2.5 2.7 1.2 3.4.9.9.5 1.2-1.8 1.2-3.8 0-18.6 4.1-24.5 6.8a33 33 0 0 0-8.4 6.3c-3.3 3.7-3.7 4.6-3.2 8.1a13 13 0 0 0 2.8 6.4 58 58 0 0 0 25.9 11.6 270 270 0 0 0 47.3.9l8-2.2c7.3-2 16.3-6.6 20.1-10.4 4.1-4.1 4.6-8 1.7-13-1.8-3.2-12.3-9.2-19.6-11.2a57.3 57.3 0 0 0-16.2-3.3c-2.2 0-4.5-.6-5.1-1.3-.5-.6-2.4-5.5-4.1-10.7-1.8-5.2-3.6-10.3-4.1-11.2-.6-1-1-2.5-1-3.3 0-.8-.4-2.3-1-3.3a180 180 0 0 1-5-13.7c-2.2-6.6-4.5-12.7-5-13.7-.7-1.3.3-2.2 6.3-5.3 17.9-9 29.3-17.7 39-29.8 5.7-7.2 13.7-21.5 13.7-24.7 0-.9.4-2 .9-2.5 1.1-1.2 2.1-8.2 2.7-20.1l.5-9.1 7-9.2c3.8-5 6.9-9.4 6.9-9.6a1858.5 1858.5 0 0 1 19.3-26.6l24.7-34.4 11.8-16.2c3.4-4.6 6.2-8.6 6.2-8.9 0-1.5 5.7-7.4 7.2-7.4.9 0 2-.5 2.3-1 .3-.6 1.5-1 2.6-1 1 0 2.7-.4 3.7-.9 1.7-.9 17.1-5.8 25.2-8 2.5-.7 5.3-1.7 6.2-2.2 1-.5 2.7-.9 3.7-.9 1.1 0 2.3-.5 2.6-1 .3-.6 1.9-1 3.5-1s3.2-.5 3.5-1c.3-.6 1.9-1 3.4-1s3.1-.3 3.5-.7c1.2-1.3 7.6-3.1 7.6-2.2 0 .5-.4 1.7-.9 2.7a225 225 0 0 0-9.2 24.7 93.8 93.8 0 0 1-3 8.7c-.5 1-.9 3.1-.9 4.7 0 1.7-.4 3.2-.9 3.5-.5.3-1.1 2-1.4 3.8l-1.5 7.3c-2.2 9.1-5.6 26.8-6.7 35a437 437 0 0 0-2.1 72c1.4 20.7 6.7 50.6 12.6 71 .7 2.2 1.4 5.5 1.7 7.3.3 1.8.9 3.5 1.4 3.8.5.3.9 1.4.9 2.5 0 1 .4 2.7.9 3.7.5.9 2.8 6.6 5.1 12.7 9.2 24.3 26 56.8 35.9 69.7 1.2 1.4 2.1 3 2.1 3.6 0 .5.9 1.7 2 2.7 1.1 1 2 2.2 2 2.6 0 .5 1.5 2.9 3.4 5.4a385.7 385.7 0 0 0 73.6 74.1 310 310 0 0 0 30.2 20.3c7.9 5.3 25.6 14.5 40.8 21.3l8.3 3.9c2.2 1.1 4.7 1.9 5.7 1.9 1.1 0 2.2.5 2.5 1 .3.6 1.6 1 2.9 1 1.2 0 2.6.4 3.2.8a321.9 321.9 0 0 0 39 12.3c1.7.5 4.4.9 6 .9 1.7 0 3.4.4 4 .9.5.5 3.2 1.2 5.9 1.5l12 1.6c18.1 2.7 28.9 3.4 53.5 3.4 24.5 0 35.2-.7 53.5-3.4a350 350 0 0 1 12-1.6c2.8-.3 5.4-1 6-1.5.5-.5 2.6-.9 4.6-.9 2.1 0 4.1-.4 4.4-1 .3-.5 1.9-1 3.5-1s3.9-.4 5.2-.9a528.2 528.2 0 0 0 26.3-8.1l5.5-2 6-2.2 4.5-1.8c4.4-1.6 7.7-3.1 24-11.1a387.2 387.2 0 0 0 30.4-15.9c.5 0 1.6-.9 2.6-2s2.2-2 2.7-2c1.7 0 13.3-8.4 37.8-27.2 6.2-4.8 39-37.6 43.8-43.8 18.9-24.7 27.2-36.1 27.2-37.8 0-.5.7-1.6 1.6-2.3.9-.7 2-2.2 2.5-3.4a832.7 832.7 0 0 0 26.8-53.8 367 367 0 0 0 7.7-21.6l4.4-13.7c.5-1.7 1-4 1-5.2 0-1.1.5-2.4 1-2.7.6-.3 1-2.1 1-3.9 0-1.7.4-3.6.9-4.2a14 14 0 0 0 1.5-4.9l1.6-10c1.9-10.8 3-18.9 3.6-26.8.4-4.2 1-7.7 1.5-7.7s.9-13.7.9-31.5a260 260 0 0 0-.9-31.5c-.5 0-1.2-3-1.5-6.8-.6-7.4-1.9-17.4-3.6-26.7l-1.6-10a14 14 0 0 0-1.5-4.9c-.5-.6-.9-2.2-.9-3.8 0-1.5-.4-3.7-.9-5l-3.1-9.8a66.2 66.2 0 0 0-5.2-15.4c-.4-.6-.8-2-.8-3.2 0-1.3-.4-2.6-1-2.9-.5-.3-1-1.5-1-2.6 0-1-.4-2.7-.9-3.7l-1.9-4.2a344.5 344.5 0 0 0-29.4-57.9 109.2 109.2 0 0 0-11.8-17.2c0-1.1-8-11.7-15.4-20.4l-7.6-9a412.2 412.2 0 0 0-33.1-32.9 300.3 300.3 0 0 0-34.8-26.6c-.4 0-1.6-.9-2.6-2s-2.3-2-3-2c-.6 0-2.1-.9-3.4-2.1-1.7-1.6-1.9-2.4-1.1-3.4.8-.9 1.1-7.2.9-19.4a5535 5535 0 0 0 1.1-143.6V860.3l-2.5-1.1c-1.4-.7-3.4-1.2-4.5-1.2-1 0-2.2-.5-2.5-1-.3-.6-1.7-1-3-1s-2.7-.5-3-1c-.3-.6-1.7-1-3-1s-2.7-.5-3-1c-.3-.6-1.7-1-3-1s-2.7-.5-3-1c-.3-.6-1.5-1-2.6-1-1 0-2.7-.4-3.7-.9a195.3 195.3 0 0 0-14.4-6.2 10 10 0 0 0-3.8-.9c-1.1 0-2-.5-2-1 0-.6-1.1-1-2.4-1-1.4 0-2.8-.5-3.1-1-.3-.6-1.7-1-3-1s-2.7-.5-3-1c-.3-.6-1.5-1-2.6-1-1 0-1.9-.5-1.9-1 0-.6-.9-1-2-1a10 10 0 0 1-3.8-.9l-4.7-2.1-4.7-2.1c-1-.5-2.5-.9-3.3-.9-.8 0-1.5-.5-1.5-1 0-.6-1.1-1-2.4-1-1.4 0-2.8-.5-3.1-1-.3-.6-1.5-1-2.6-1-1 0-1.9-.5-1.9-1 0-.6-.9-1-2-1a10 10 0 0 1-3.8-.9c-2-1-6.8-3-9.7-4.1-1.1-.4-4-1.7-6.3-2.9a22.6 22.6 0 0 0-6.3-2.1c-1 0-1.9-.5-1.9-1 0-.6-.9-1-2-1s-2-.5-2-1c0-.6-1.1-1-2.4-1-3.6 0-4-1.5-.8-3.1 8.6-4.4 16.2-10.3 16.2-12.6 0-.7-.9-3.3-2-5.8l-4-9c-1.1-2.5-2-4.8-2-5.3s-.9-2.7-2-5a23 23 0 0 1-2-5c0-.5-.6-2.2-1.4-3.8l-3.1-6.9c-.9-2.2-2.5-5.7-3.6-7.8-1-2.2-1.9-4.5-1.9-5.3 0-.7-.8-2.8-1.8-4.6-1-1.8-2.4-6.5-3.1-10.3-.9-4.6-2.3-8.2-4.1-10.5a52.5 52.5 0 0 1-4.3-6.6c-1.8-3.6-3.8-4.7-7.1-3.8-1.6.4-5-.8-10.2-3.4l-22.4-11-47.5-23.2-49-24a6079.8 6079.8 0 0 1-86.1-42.2c-18.1-8.2-74.4-36.5-74.4-37.3 0-.6-1.2-2.5-2.7-4.2l-2.8-3.1-16.5.9c-9.1.4-23.9 1.3-33 1.9l-30 1.6c-15.3.7-17.4 1.5-18.9 7.1-2.5 8.8-.5 30 3.4 35.9l1.7 2.6 15.6-.6c8.6-.3 23.4-1 32.7-1.6l31.3-1.6 14.3-.6 20.2 10 34.7 17c35.3 17.1 50.1 24.5 50.6 25.4.5.8-8.4 9.7-23.4 23.3a3059.7 3059.7 0 0 0-18.5 16.5l-10.2-5c-5.4-2.8-10.4-5-11.2-5-.7 0-1.3-.5-1.3-1 0-.6-.6-1-1.3-1-.8 0-5.8-2.3-11.2-5-5.4-2.8-10.4-5-11.2-5-.7 0-1.3-.5-1.3-1 0-.6-.9-1-2-1s-2-.5-2-1c0-.6-.9-1-2-1s-2-.5-2-1c0-.6-.9-1-2-1s-2-.5-2-1c0-.6-.7-1-1.5-1s-2.3-.4-3.3-.9l-7.7-3.8-10-5a494.3 494.3 0 0 0-34.2-16.3c-.7 0-1.3-.5-1.3-1 0-.6-.9-1-2-1s-2-.5-2-1c0-.6-.9-1-2-1s-2-.5-2-1c0-.6-.9-1-2-1s-2-.3-2-.8c0-.8-4.9-3.2-6.7-3.2-.7 0-1.3-.5-1.3-1 0-.6-.9-1-2-1s-2-.5-2-1c0-.6-.9-1-2-1s-2-.5-2-1c0-.6-.9-1-2-1s-2-.5-2-1c0-.6-.9-1-2-1s-2-.5-2-1c0-.6-.9-1-2-1s-2-.5-2-1c0-.6-.9-1-2-1s-2-.5-2-1c0-.6-.9-1-2-1s-2-.5-2-1c0-.6-.9-1-2-1s-2-.5-2-1c0-.6-.9-1-2-1s-2-.5-2-1c0-.6-.9-1-2-1s-2-.5-2-1c0-.6-.9-1-2-1s-2-.5-2-1c0-.6-.9-1-2-1s-2-.5-2-1c0-.6-.9-1-2-1s-2-.5-2-1c0-.6-.9-1-2-1s-2-.5-2-1c0-.6-.9-1-2-1s-2-.5-2-1c0-.6-.9-1-2-1s-2-.5-2-1c0-.6-.9-1-2-1s-2-.5-2-1c0-.6-.9-1-2-1s-2-.5-2-1c0-.6-.9-1-2-1s-2-.5-2-1c0-.6-.9-1-2-1s-2-.5-2-1c0-.6-.9-1-2-1s-2-.5-2-1c0-.6-.9-1-2-1s-2-.3-2-.8c0-.8-4.9-3.2-6.7-3.2-.7 0-1.3-.5-1.3-1 0-.6-.9-1-2-1s-2-.3-2-.8c0-.8-4.8-3.2-6.6-3.2a156.7 156.7 0 0 0-17.4-9.3l-20-10.1-10.5-5.3c-10-5-15-7.8-15.3-8.6-.2-.4-1.2-.7-2.3-.7-1 0-1.9-.5-1.9-1 0-.6-.9-1-2-1s-2-.5-2-1c0-.6-.9-1-1.9-1-1.1 0-2.1-.3-2.3-.8-.3-.6-7.2-4.4-15.5-8.6-1.3-.6-2.3-1.4-2.3-1.9 0-.4-.9-.7-2-.7s-2-.4-2-.9-.8-1.1-1.7-1.4a41 41 0 0 1-8.3-4.7c-.3-.3-1.8-1.2-3.5-2-1.6-.8-4.8-2.6-7-4a78.6 78.6 0 0 0-6.7-3.9c-1.6-.8-2.8-1.8-2.8-2.3 0-.4-.7-.8-1.5-.8-.9 0-2.5-.9-3.7-2-1.2-1.1-2.8-2-3.5-2-.7 0-1.3-.5-1.3-1 0-.6-.6-1-1.3-1-.7 0-2.3-.9-3.5-2-1.2-1.1-2.5-2-3-2-.4 0-1.7-.8-2.8-1.8a54 54 0 0 0-8.6-5.5c-1.3-.6-2.5-1.5-2.8-1.8l-7-4.9a39 39 0 0 1-6.8-5.2c-.2-.4-.9-.8-1.5-.8a14 14 0 0 1-4.7-3c-1.9-1.6-3.8-3-4.3-3-.4 0-2.1-1.4-3.9-3-1.7-1.7-3.6-3-4.2-3-.6 0-1.8-.9-2.6-2s-2-2-2.6-2c-.6 0-2.5-1.4-4.2-3-1.8-1.7-3.6-3-4-3-.5 0-2.2-1.2-3.8-2.8a85 85 0 0 0-6.4-5.2 35.7 35.7 0 0 1-5.1-4.2c-.9-1-2-1.8-2.5-1.8s-2.7-1.7-4.9-3.8c-2.2-2-5.8-5-7.9-6.6-2-1.5-5.3-4.3-7.1-6.2a16.4 16.4 0 0 0-4.2-3.4c-.5 0-4-3-7.9-6.8a174 174 0 0 0-10.5-9.4c-2-1.4-8.3-7.3-14-13a1746 1746 0 0 1-51-48.9 1153.9 1153.9 0 0 0-55.2-52.2 75 75 0 0 1-6-5 62 62 0 0 0-5.7-4.8l-6-4.9a46 46 0 0 0-5.2-3.8c-1.6-.9-2.8-2-2.8-2.4 0-.4-.6-.8-1.3-.8-.7 0-2.2-.8-3.3-1.8a73.2 73.2 0 0 0-14.1-9.3c-1.8-.8-3.3-1.7-3.3-2.1 0-.5-1.1-.8-2.4-.8-1.4 0-2.8-.5-3.1-1-.3-.6-1.7-1-3-1s-2.7-.5-3-1c-.3-.6-1.9-1-3.6-1-1.6 0-2.9-.5-2.9-1 0-.6-1.8-1-3.9-1-2.2 0-4.3-.5-4.6-1-.3-.6-2.8-1-5.4-1-2.6 0-5.1-.4-5.6-.9a32 32 0 0 0-9.5-1.6c-14.7-1.2-578-1.6-578-.5zm526 91.7c7.1 3.7 26.5 22.8 35.7 35.3a645.4 645.4 0 0 1 31.3 47.5 183.4 183.4 0 0 1 7.7 13.5l7.7 14c6.9 12.5 24.8 49.4 31.9 66l3.9 9c1.4 3 3.5 8.2 4.7 11.5l3.3 8.5a105.1 105.1 0 0 1 3.6 9c2.1 5.2 5.2 13.7 7.3 20.5 1.2 3.8 2.5 7.8 3 8.7.5 1 .9 2.9.9 4.2 0 1.4.5 2.8 1 3.1.6.3 1 1.9 1 3.5s.5 3.2 1 3.5c.6.3 1 1.9 1 3.5s.4 3.1.9 3.4c.5.3 1.1 2.3 1.4 4.3.3 2.1 1.2 7.4 2.1 11.8 1.2 6.3 1.6 15.4 1.6 43.5v35.6l-3.3 1.2a25 25 0 0 1-7.5 1.2c-2.2 0-4.4.4-4.7 1-.3.5-2.8 1-5.6 1-2.7 0-4.9.4-4.9 1 0 .5-2 1-4.4 1-2.5 0-4.8.4-5.1 1-.3.5-2.2 1-4.1 1-1.9 0-3.4.4-3.4 1 0 .5-1.3 1-2.9 1-1.7 0-3.3.4-3.6 1-.3.5-1.5 1-2.6 1-1 0-2.7.4-3.7.9l-4.7 2.1-4.7 2.1c-1 .5-2.5.9-3.3.9-.8 0-1.5.4-1.5 1 0 .5-.9 1-2 1s-2 .4-2 1c0 .5-.9 1-2 1s-2 .4-2 1c0 .5-.9 1-2 1s-2 .4-2 1c0 .5-.6 1-1.3 1-.7 0-2.3.9-3.5 2-1.2 1.1-2.6 2-3.2 2a1 1 0 0 0-1 1c0 .5-.5 1-1.1 1a43 43 0 0 0-8.2 7.4c-7.2 7.3-11.7 14.1-11.7 17.6 0 1.1-.4 2.2-1 2.5-.5.3-1 3.1-1 6.1 0 3 .5 5.4 1 5.4.6 0 1 .8 1 1.8 0 2.2 2.2 7.2 3.3 7.2.4 0 .7.5.7 1.1 0 1.5 11 11.9 12.6 11.9.7 0 1.4.3 1.6.7.4 1.1 8.7 5.3 10.4 5.3.8 0 1.4.4 1.4 1 0 .5.9 1 1.9 1 1.1 0 2.3.4 2.6 1 .3.5 1.5 1 2.6 1 1 0 2.7.4 3.7.9.9.5 3.9 1.5 6.5 2.3l4.8 1.4-7.3 3.3-9 4.2c-1 .5-2.7.9-3.7.9-1.1 0-2.2.4-2.5.9-.3.5-2.5 1.2-4.8 1.6a52226 52226 0 0 1-612.8 1.3 102.7 102.7 0 0 1-62.3-40.6A154.4 154.4 0 0 1 73.4 707c-2.5-9.8-3.2-89.9-1-100.9l2.7-13.1a528 528 0 0 1 25.4-76.5c10.2-24 14.6-33.5 24.5-53 13-25.8 27.2-50.9 37.9-67 5.4-8.3 20.6-29.2 24.9-34.5 12.4-15 27.9-29.1 36.4-33 4.3-2 6-2 243.4-1.6l239 .5 5.4 2.8zM1092 619c5.7 3.4 9.4 5.6 15.8 9.1l4.7 2.9c.6.5 3.5 2.2 6.5 3.8l9.5 5.2 8 4.4c2.2 1.2 4.2 2.3 4.5 2.6.3.3 1.9 1.2 3.5 2.1l8.5 4.7a1913.7 1913.7 0 0 0 43.3 23l6.7 3.6v152.3l-4.7.7c-4.6.7-36.3 2-87.3 3.6-13.5.4-25.9 1.1-27.6 1.5l-3.2.7-.6-80.9c-.3-44.4-.9-95.8-1.2-114.1l-.6-33.4 4.3 2.5a324 324 0 0 1 9.9 5.7zm486.5 55.9l45 22.1 47.5 23.2 13.8 6.6c1.3.7 3.1 3.6 5 8.2l2.5 6c.9 1.9 2.5 6 3.7 9 1.2 3 2.8 7.1 3.7 9 1.8 4.2 3.3 7.7 4.4 10.7 1.7 4.3 2.7 6.8 4.7 11.3 3.4 7.9 4.6 11.9 3.8 12.7-.5.5-1.1.2-1.3-.5-.3-.6-1.5-1.2-2.8-1.2-1.3 0-2.7-.5-3-1-.3-.6-1.5-1-2.6-1-1 0-1.9-.5-1.9-1 0-.6-.7-1-1.5-1s-2.3-.4-3.3-.9a48.8 48.8 0 0 0-11.8-5.1c-.8 0-1.4-.5-1.4-1 0-.6-.9-1-2-1s-2-.4-2-.8c0-.5-2.2-1.5-5-2.2-2.7-.7-5-1.7-5-2.2 0-.4-.9-.8-2-.8s-2-.5-2-1c0-.6-.9-1-2-1s-3.5-.9-5.5-2-4.2-2-5-2c-.8 0-1.5-.5-1.5-1 0-.6-.6-1-1.4-1-.8 0-3.1-.9-5.3-2a66 66 0 0 0-14-6c-.7 0-1.3-.5-1.3-1 0-.6-.7-1-1.5-1s-2.3-.4-3.3-.9a48.8 48.8 0 0 0-11.8-5.1c-.8 0-1.4-.5-1.4-1 0-.6-.9-1-2-1s-2-.5-2-1c0-.6-.9-1-2-1s-2-.5-2-1c0-.6-.7-1-1.5-1a11 11 0 0 1-3.5-1l-4-2a9 9 0 0 0-3.5-1c-.8 0-1.5-.5-1.5-1 0-.6-.6-1-1.2-1-1.1 0-7-2.6-22.1-10.1a18 18 0 0 0-5.3-1.9c-.8 0-1.4-.5-1.4-1 0-.6-.6-1-1.4-1a18 18 0 0 1-5.3-1.9c-15.1-7.5-21-10.1-22-10.1-.7 0-1.3-.5-1.3-1 0-.6-.9-1-2-1-3.6 0-2.1-2.7 5.3-9.1l15.7-14.4c15.4-14.7 17.5-16.5 19-16.5.8 0 6 2.2 11.5 4.9zm-359.9 13.2a768 768 0 0 0 15.4 7.9c13 6.5 59.8 29 66.5 32 12.6 5.6 14.5 6.6 15 8 .4.8.9 22 1.2 47.2l.6 45.6-7.4.6c-4.1.4-19.8 1.1-34.9 1.6l-45.6 1.5-18.1.7-.6-34.8c-.7-36.9-.9-114.4-.3-114.4l8.2 4.1zm116.4 55.6l7.5 3.3 6.8 2.9 18.7 8.3 6.5 2.8c2.8 1 6.3 2.5 11.7 4.9 2.6 1.2 5 2.1 5.3 2.1.3 0 2.7.9 5.3 2.1 5.7 2.6 8.2 3.5 10.5 4.3 1.4.4 1.7 1.7 1.7 6.8 0 9.8 1.1 42.1 1.4 44 .3 1.5-2 1.7-25.8 2.2l-43.3 1.2-17.3.5V739l2.8 1.1 8.2 3.6zm88.5 37.3c.6.4 4.8 2.1 9.5 3.9l11 4.3 5 2.1c1.4.5 3.3 1.3 4.2 1.8 1 .5 2.5.9 3.3.9.8 0 2.3.4 3.3.9 2.3 1.2 5.6 2.5 12.7 5.1 7.1 2.6 10.4 3.9 12.7 5.1 1 .5 2.4.9 3.2.9 1 0 1.4 2 1.5 8.5l.2 8.5h-6.6c-3.7 0-7.4.4-8.4.9-1 .6-14.1 1.1-29.3 1.3l-27.5.3-.6-22.4c-.3-12.3-.4-22.8-.2-23.2.5-.8 4.3-.1 6 1.1zm80.2 30.2c4.1 1.9 5.3 3.3 5.3 6.5 0 1.6.5 3.4 1.2 4.1.9.9-.3 1.2-5.5 1.2h-6.7v-6.5c0-7.1.5-7.6 5.7-5.3zm59.3 20.1c5.2 1.8 10.1 3.6 10.8 4 .9.6 1.2 9.6 1 40a719 719 0 0 1-.5 35.4c-.2-2-.8-3.7-1.4-3.7-.5 0-.9-1.8-.9-4s-.4-4-1-4c-.5 0-1-1.8-1-3.9 0-2.2-.4-4.3-1-4.6-.5-.3-1-1.9-1-3.5s-.4-3.2-1-3.5c-.5-.3-1-2.1-1-4s-.4-3.7-1-4c-.5-.3-1-1.9-1-3.5s-.4-3.2-1-3.5c-.5-.3-1-2.2-1-4.1 0-1.9-.4-3.4-1-3.4-.5 0-1-1.5-1-3.4s-.4-3.8-1-4.1c-.5-.3-1-2.1-1-4s-.4-3.7-1-4c-.5-.3-1-2.1-1-4s-.4-3.7-1-4c-.5-.3-1-2.1-1-3.9 0-1.7-.5-3.7-1.2-4.4-1.8-1.8-.3-1.5 10.2 2.1zm24.2 7.6l6.8 2.1c2.5.7 5.3 1.6 6.2 2.1 1 .5 2.7.9 3.8.9 1.1 0 2.8.4 3.8.9.9.5 3.7 1.5 6.2 2.1l20.8 6 4.2 1.3.1 25.6c0 14.1.2 26.3.3 27.1.2.8.7 10.1 1.1 20.6l.7 19.2-3.9.6-7.6 1.2c-2 .4-4 1-4.3 1.5-.3.5-1.4.9-2.5.9-1 0-1.9.4-1.9 1 0 .5-1.1 1-2.5 1s-2.5.5-2.5 1.1c0 1.4-22.9.6-28.1-1l-3.6-1.1-.6-23.8-1.4-57c-.7-36.3-.9-34.6 4.9-32.3zM1654 858l7.5 1.9 16 4.1c6.6 1.8 13.2 3.4 14.6 3.7l2.6.5.6 35.5c.4 19.6 1 40 1.4 45.4l.6 9.9h-11.6c-8.7 0-11.7-.3-11.7-1.3 0-1.9-4.2-6.3-8.3-8.6-2.8-1.6-5.5-2.1-10.7-2.1h-7v-19.3c0-10.5-.2-24.8-.5-31.7l-1-26.4-.5-13.8 2.3.7 5.7 1.5zm-132.7 6.7a112 112 0 0 0 1.7 6.8c.7 2.2 1.4 5.5 1.7 7.3.3 1.8.9 3.5 1.4 3.8.5.3.9 2.1.9 4s.5 3.4 1 3.4c.6 0 1 2.4 1 5.3 0 4.1-.4 5.6-2 6.7-1.1.8-2 1.9-2 2.5 0 .5-1.4 2.6-3 4.5s-3 3.8-3 4.3c0 .4-1.3 2.1-3 3.9-1.6 1.7-3 3.7-3 4.4 0 .8-.4 1.4-.8 1.4s-1.5 1.2-2.4 2.7c-.9 1.6-2.8 4.1-4.2 5.8a13.7 13.7 0 0 0-2.6 3.8c0 1.2-3 4-3.6 3.4-.3-.3-.8-17.7-1.1-38.6l-.6-38.1h23.1l.5 2.7zm-31.9-1.1c1.4.5 1.6 5.1 1.6 41.1v40.6l-6.7-.6c-6.6-.6-17.6-1.8-33.8-3.8l-16-1.9c-16.4-2-15.1-1.3-15.9-8.2-.3-3.4-.6-19.3-.6-35.4v-29.2l8.3-.7c4.5-.3 20.1-.9 34.7-1.3 14.6-.4 26.6-.9 26.7-1 .1-.1.8.1 1.7.4zm-78.4 37.3v34.8l-5.2-.4c-2.9-.2-6.6-.6-8.3-.9l-11-1.5c-8.5-1.1-15.7-2.1-27-3.8l-26.7-3.9a23 23 0 0 1-6.4-1.5c-.4-.3-.8-10.9-1.1-23.4-.2-12.5-.5-24.9-.7-27.6l-.3-4.7 24.1-.1c13.3 0 26.1-.4 28.6-.8 2.5-.5 11.1-.9 19.3-1l14.7-.1v34.9zm-93.8-6.2c.2 14.2.1 26.4-.1 27.1-.2.8-1 1-2 .6-.9-.4-4.5-1.1-8.1-1.6-9.7-1.4-20.6-3.2-34.5-5.7l-11-2-10.5-2-31-6c-8.5-1.5-8-.5-8-17.7V872h24.5c15.4 0 24.5-.4 24.5-1s10.1-1.1 26.8-1.3c14.7-.1 27.2-.3 27.9-.5.9-.1 1.3 6 1.5 25.5zm389.4-23.8c.5.5 2.7 1.1 4.9 1.4 5.6.8 12.7 2.3 14.8 3.2 1.6.7 1.7 3.6 1.7 41.9a627 627 0 0 1-.8 42.4c-.7 1-3.4 1.1-11.9.6l-11-.7-.7-29.6c-.3-16.3-.9-36.5-1.2-44.9-.6-14.6-.6-15.2 1.3-15.2 1 0 2.3.4 2.9.9zm-502.3 7.8c.4 3.8.7 10.3.7 14.6v7.9l-4.7-.5c-4.5-.5-7.9-1.2-17.8-3.5l-9.5-2.2c-5.7-1.2-10-2.3-17.2-4.1-5.7-1.4-12.6-2.9-16.3-3.5-1.6-.3-3.9-.9-5-1.4-1.1-.5-3.3-1.1-5-1.4-3.1-.5-6-1.2-18-4.2-15.2-3.9-13.2-4.1 60.5-5.9 15.7-.4 28.9-1.1 29.5-1.6 1.8-1.7 2.2-.8 2.8 5.8zm632.3 290.2c.5.5 4.5 2.9 8.9 5.2 4.4 2.3 12 6.8 16.9 10.1 4.9 3.2 9 5.8 9.2 5.8.7 0 17.7 13.2 25.5 19.8 14 11.7 45.9 45.2 45.9 48 0 .5.7 1.6 1.6 2.3.9.8 2.6 2.8 3.8 4.5l6.3 9.1c2.3 3.3 5 7.5 6.1 9.4 1.1 1.9 4.1 7 6.9 11.4 2.7 4.4 6.3 11.1 8.1 15a395 395 0 0 0 5.3 10.8c1 2.2 1.9 4.3 1.9 4.7 0 .5-1.7 1.6-3.7 2.5l-7.6 3.6c-2.2 1-4.5 1.9-5.3 1.9-.7 0-2.9.9-4.9 2-2 1.1-4.2 2-4.9 2-.8 0-3.1.9-5.3 1.9-2.1 1.1-5.6 2.7-7.8 3.6l-6.9 3.1a14 14 0 0 1-3.8 1.4c-.4 0-3 .9-5.6 2.1l-6.7 2.9-6.7 2.9c-2.6 1.2-5 2.1-5.3 2.1-.3 0-2.7.9-5.3 2.1l-6.7 2.9-6.7 2.9a26.2 26.2 0 0 1-5.8 2.1c-.6 0-1.8.4-2.8 1l-12.7 5.6c-6 2.5-12.3 5.2-13.9 6a14 14 0 0 1-3.8 1.4c-.4 0-3 .9-5.6 2.1l-6.7 2.9-6.7 2.9c-2.6 1.2-5 2.1-5.3 2.1-.3 0-2.7.9-5.3 2.1-4.6 2.1-7 3.1-11.4 4.8-3 1.1-6.5 2.6-10.8 4.4-1.9.9-5.5 2.3-8 3.3s-6 2.6-7.8 3.6c-1.8 1-3.8 1.8-4.5 1.8-.7 0-3.2.9-5.5 2-2.2 1.1-4.5 2-5.1 2-.5 0-2.9 1-5.3 2.1a69.6 69.6 0 0 1-6.3 2.9l-6.7 2.9c-2.6 1.2-5 2.1-5.3 2.1-.3 0-2.7.9-5.3 2.1-9.5 4.2-13.2 5.3-13.2 3.9 0-.5-2.7-3.6-6-6.9-4.7-4.8-5.8-6.5-5.1-7.9a47 47 0 0 0 5.1-11.8c0-.7.9-2.9 2-4.9 1.1-2 2-4 2-4.5 0-.6 1-3.2 2.1-5.8l3.5-8 3-7 2.4-5.7a93 93 0 0 1 1.9-4.8l2-5 5.6-13.2c.9-2.2 2.5-5.7 3.6-7.8 1-2.2 1.9-4.5 1.9-5.3 0-.7.9-2.9 2-4.9 1.1-2 2-4.2 2-4.9 0-.8.9-3.1 1.9-5.3a140.2 140.2 0 0 0 8.2-19.1l2.9-6.7c1.2-3.1 2.6-6.6 4.9-11.7 1.2-2.6 2.1-5 2.1-5.3 0-.3 1-2.7 2.1-5.3l3.6-8.2 2.9-6.4a14 14 0 0 0 1.4-3.8c0-.4.9-3 2.1-5.6l2.9-6.7c.9-2.2 2.8-6.9 5.5-13l4.4-10.8c.4-1.2 1.8-4.2 3-6.5 1.1-2.4 2.1-4.8 2.1-5.3s1-3.1 2.1-5.7l6.5-15c2.9-6.9 4.2-8.7 7.1-9.6l4.8-1.6c8.6-3.1 10.6-3.5 12.1-2.1zm-38.4 12.8l-2 4.3-3.1 7.2c-1.2 2.6-2.1 5-2.1 5.3 0 .3-.9 2.7-2.1 5.3l-2.9 6.7c-.4 1.1-1.7 4-2.9 6.3-1.1 2.4-2.1 5-2.1 5.7 0 .7-.9 3-1.9 5.2-1.1 2.1-2.6 5.5-3.5 7.5l-3.2 7.5-6.4 15.8-2.9 6.7c-1.2 2.6-2.1 5-2.1 5.3 0 .3-1 2.7-2.1 5.3l-3.6 8.2-2.9 6.4a14 14 0 0 0-1.4 3.8c0 .4-.9 3-2.1 5.6l-2.9 6.7c-.9 2.2-2.8 6.9-5.5 13l-4.4 10.7c-.4 1.3-1.8 4.3-3 6.6a30.9 30.9 0 0 0-2.1 5.3c0 .5-1 3.1-2.1 5.7l-3.4 7.7-3 7-4.5 11c-.8 2.3-2.1 5.3-4.4 10.7l-3.2 7.5c-.9 2.1-2.4 5.5-3.5 7.6-1 2.2-1.9 4.8-1.9 5.9 0 1.7-.3 1.8-1.5.8-.8-.7-1.5-2.7-1.5-4.4 0-1.8-.6-3.8-1.2-4.4-1-1-1.4-21.4-1.6-93.9-.2-87.7-.2-92.6 1.5-93.9 1-.7 3-1.4 4.5-1.4s3-.5 3.3-1c.3-.6 1.7-1 3.1-1 1.3 0 3.2-.4 4.2-.9a523 523 0 0 1 37.7-12.1l6.5-2 6.5-2 9.5-3c9.4-2.8 13-4 15.5-5.1 2-.8 6.7-1.7 7.3-1.3.2.1-.1 1-.6 2.1zm-113.3 93c-.1 33.5-.4 59.7-.6 58.3-.2-1.4-.8-3.4-1.3-4.5s-1.6-4.9-2.5-8.5l-2.6-10a128 128 0 0 1-2-7.3l-1.9-7.7-2-8-1.9-7.8c-.9-3.6-2.4-9.3-5.7-21-.9-3.1-1.9-7.2-2.1-9-.3-1.8-.9-3.5-1.4-3.8-.5-.3-.9-2-.9-3.9s-.4-3.7-1-4c-.5-.3-1-2.1-1-4s-.4-3.7-1-4c-1.4-.9-1.3-4.8.2-6.3.7-.7 2-1.2 3-1.2s2.6-.4 3.6-.9c.9-.5 5.1-1.9 9.2-3.1a222.6 222.6 0 0 0 11.8-3.9c.1-.1.1 27.2.1 60.6zm-65.9-36.8c0 1.1.5 2.3 1 2.6.6.3 1 2.1 1 4s.4 3.6.9 3.9c.5.3 1.1 2 1.4 3.8l1.5 7.3c4.3 17.3 6.4 25.2 7.2 26.7.6 1 1 2.8.9 4 0 1.4-.2 1.7-.6.8-.2-.8-1.4-3.5-2.5-6l-2.8-6.5c-1.7-4.5-4.1-10.4-6.9-16.7-1.2-2.6-2.1-5-2.1-5.3 0-.3-.9-2.7-2.1-5.3l-3.1-7.2-1.8-4c-.9-1.9 1.7-3.9 5.3-4 2 0 2.7.5 2.7 1.9zm-19.9 8.8c2.5 5.6 3.9 9 4.9 11.8 1.6 4.3 4.1 10.3 6.9 16.7a127.1 127.1 0 0 0 5.1 12.3c1.7 3.6 3 6.9 3 7.3 0 .5.9 2.7 2 5 1.1 2.2 2 4.6 2 5.2 0 .5.4 1.8 1 2.8 1.7 3.2 5 10.6 5 11.4 0 .9 3.1 8.2 6.1 14.1 1 2.2 1.9 4.4 1.9 5.1 0 .7.9 3.1 2 5.4a23 23 0 0 1 2 5c0 .5.6 2.2 1.4 3.8l3.1 6.9c.9 2.2 2.5 5.7 3.6 7.8 1 2.2 1.9 4.5 1.9 5.3 0 .7.9 2.9 2 4.9 1.1 2 2 4.2 2 4.9 0 .8 1 3.4 2.1 5.8 3 6 3.5 7.4 5.4 14.8 2.4 9.6 3.2 12.3 4 14.5.4 1.1-33.3-32-74.9-73.5a3225 3225 0 0 1-75.3-76.4c.2-.5 3.9-2 8.2-3.3 4.4-1.4 8.8-2.9 9.7-3.4 1-.5 2.9-.9 4.2-.9 1.4 0 2.8-.5 3.1-1 .3-.6 1.7-1 3-1s2.7-.5 3-1c.3-.6 1.9-1 3.5-1s3.2-.5 3.5-1c.3-.6 1.9-1 3.4-1s3.1-.4 3.7-.8c.5-.5 4.3-1.9 8.4-3.1 12-3.6 14.4-4.5 15.5-5.3.5-.4 2.1-.8 3.6-.8s3.1-.5 3.4-1c1.6-2.6 4.5-.9 6.6 3.7zm-19.3 104.6c50.1 50.1 78.9 79.6 78.3 80.2a23.6 23.6 0 0 0-5.1 12v3.5h-139.5c-132.2 0-139.5-.1-139.5-1.8.1-9.3 3.7-39.8 6.1-52.7.6-2.8 1.2-6.6 1.5-8.5.3-1.9.9-4.4 1.4-5.5.5-1.1 1.1-3.4 1.3-5 .3-1.7 1.1-4.8 1.7-7 .6-2.2 1.4-5.1 1.6-6.5.3-1.4.9-3.4 1.4-4.5l2-5.5c1.5-4.2 2.9-7.9 4.1-10.2a8 8 0 0 0 .9-2.8c0-.6.9-3.2 2.1-5.8l2.9-6.7c.4-1.1 3.4-7.3 6.6-13.9l5.9-11.9 8-2.4c4.4-1.4 8.8-2.9 9.7-3.4 1-.5 2.7-.9 3.7-.9 1.1 0 2.3-.5 2.6-1 .3-.6 1.9-1 3.5-1s3.2-.5 3.5-1c.3-.6 1.7-1 3.1-1 1.3 0 3.2-.4 4.2-.9.9-.5 5.1-1.9 9.2-3.1l9.5-3 9.5-3 9.5-3a48 48 0 0 1 9.5-2.9c.8-.1 37.2 35.6 80.8 79.2zm54.9-55.1c-.3.8-.6.5-.6-.6-.1-1.1.2-1.7.5-1.3.3.3.4 1.2.1 1.9zm356.3 49l3 9.3c1.2 3.1 4.8 15.2 6.6 22.5 4.2 17.1 7 37.3 8 57.7l.6 12.3h-138.6c-122.5 0-138.6-.2-138.6-1.5 0-.8.8-1.5 1.8-1.5a5 5 0 0 0 2.8-.9c.5-.4 4.1-2 7.9-3.5l10.5-4.3 10.3-4.2c3.5-1.3 9.1-3.7 18.2-7.6l6.3-2.6 4.5-1.8a220 220 0 0 0 6.9-3c2.6-1.2 5.2-2.1 5.8-2.1.6 0 1.8-.4 2.8-1l8.7-4 8.7-4c1-.6 2.4-1 3.2-1 .8 0 3.4-1 5.8-2.1 2.3-1.2 5.2-2.5 6.3-2.9 2.7-1 6.1-2.4 11.7-4.9 2.6-1.2 5-2.1 5.3-2.1.3 0 2.7-.9 5.3-2.1a144.2 144.2 0 0 1 12-5l4.7-1.9 6.7-2.9c2.6-1.2 5-2.1 5.3-2.1.3 0 2.7-1 5.3-2.1a66.5 66.5 0 0 1 14.2-5.9c.5 0 2.5-.9 4.5-2s4.2-2 4.9-2c.8 0 3.1-.9 5.3-1.9 2.1-1.1 5.6-2.7 7.8-3.6l6.9-3.1a14 14 0 0 1 3.8-1.4c.4 0 3-.9 5.6-2.1 5.1-2.3 8.6-3.7 11.7-4.9l6.7-2.9c2.6-1.2 5-2.1 5.3-2.1a96 96 0 0 0 13.1-5.9l2.4 7.1zm-800 23.8c0 1.5-11.3 16-12.5 16a13 13 0 0 1-4.5-2.8 52.8 52.8 0 0 0-6.3-4.2l-2.9-1.4 3.4-1.4 5-2.3a9 9 0 0 1 3.5-.9c1.9 0 8-1.8 10.3-3.1 2.1-1.1 4-1.1 4 .1zm-590 46.4c0 1.3-1.3 5-3 8.1-1.6 3.1-3 6.5-3 7.4 0 .9-.4 2.1-.9 2.7-.6.5-1.1 3.6-1.3 6.9l-.3 6-112.5.2c-61.9.1-112 0-111.5-.2l5.5-1.5 6.5-2 9.5-3c4.1-1.2 8.3-2.6 9.2-3.1 1-.5 2.7-.9 3.7-.9 1.1 0 2.3-.5 2.6-1 .3-.6 1.9-1 3.5-1s3.2-.5 3.5-1c.3-.6 1.9-1 3.5-1s3.2-.5 3.5-1c.3-.6 1.5-1 2.6-1 1 0 2.7-.4 3.7-.9.9-.5 5.1-1.9 9.2-3.1 17.8-5.4 20.6-6.3 22.2-7.1 1-.5 2.7-.9 3.7-.9 1.1 0 2.3-.5 2.6-1 .3-.6 2-1 3.6-1 1.7 0 3.2-.6 3.5-1.5.5-1.3 8.7-1.5 65.5-1.5H601v2.4zm-6.2 50.7c1.2 2.2 2.2 4.3 2.2 4.5 0 .5-8.1 4.1-16.2 7.3-3.5 1.3-6.8 2.7-12 5-2.6 1.2-5 2.1-5.3 2.1-.3 0-2.5.9-5 2l-9 4c-2.5 1.1-4.8 2-5.3 2s-2.7.9-5 2a23 23 0 0 1-5 2c-.5 0-2.2.6-3.8 1.4l-6.4 2.9-8.2 3.6a33.3 33.3 0 0 1-5.8 2.1c-.5 0-2.5.9-4.5 2s-4.2 2-4.9 2c-.8 0-3.1.9-5.3 1.9-4.8 2.4-9.2 4.3-16.3 7.1-3 1.2-7.1 2.8-9 3.7l-5.7 2.4-9.5 3.8-7 3c-2.6 1.2-5 2.1-5.3 2.1-.3 0-2.7.9-5.3 2.1a220 220 0 0 1-6.9 3l-9.5 3.8-6 2.5-7.5 3.2c-4.9 2.1-8.3 3.5-10.8 4.4l-6.7 2.9a30.7 30.7 0 0 1-5.6 2.1c-.5 0-2.2.6-3.8 1.4l-6.9 3.1-7.3 3.1c-4.5 1.9-6.2 1.8-6.2-.5 0-1.1-.4-2.3-1-2.6-.5-.3-1-1.5-1-2.6 0-1-.4-2.7-1-3.7-1-1.8-3.9-10.8-6-18.2a102 102 0 0 0-2.1-6.8c-.5-1.3-.9-3.6-.9-5.2s-.4-3.1-.9-3.4c-.5-.3-1.1-2.3-1.5-4.3L344 1509c-.6-3.6-1.5-9.9-1.9-14a179 179 0 0 1-2.5-22.3l-.5-10.7h253.5l2.2 4.1zm1053.7-1.7c-6.9 3.3-11 5.1-17.5 7.6-3 1.2-7.1 2.8-9 3.7-4.2 1.8-7.7 3.3-10.7 4.4-3.9 1.5-6.7 2.6-10.5 4.3l-7 3-8 3.5a37.3 37.3 0 0 1-5.6 2.1c-.5 0-2.7.9-5 2-2.2 1.1-4.6 2-5.2 2-.5 0-1.8.4-2.8 1l-8.7 4-8.7 4c-1 .6-2.2 1-2.8 1-.6 0-3.2.9-5.8 2.1-5.1 2.3-8.6 3.7-11.7 4.9l-6.7 2.9c-2.6 1.2-5 2.1-5.3 2.1-.3 0-2.7.9-5.3 2.1a220 220 0 0 1-11.4 4.8l-5.8 2.4c-1.9.9-6 2.5-9 3.7-7.1 2.8-11.5 4.7-16.3 7.1-2.2 1-4.5 1.9-5.2 1.9-.7 0-3.3 1-5.7 2.1-4 2-6.2 3-11.3 4.9l-5.7 2.4-7.5 3.2-5.8 2.4-4.7 1.9a173 173 0 0 0-5 2l-5.8 2.4c-1.9.9-5.5 2.3-8 3.3-2.5.9-4.9 2.1-5.4 2.6-1.7 1.4-3.6.9-3.6-1a5 5 0 0 0-.8-2.7c-.5-.6-1.5-3-2.2-5.5-.8-2.5-1.6-5-2-5.5-.4-.6-1.2-3-1.9-5.5s-1.7-5.3-2.2-6.2c-.5-1-.9-3.1-.9-4.7 0-1.7-.4-3.2-.9-3.5-.5-.3-1.1-2.3-1.4-4.3-.3-2.1-1.1-6.1-1.7-8.8-3.1-14-5.6-30.8-6.5-43.5a151 151 0 0 0-1.1-12.3l-.6-2.7H1653.5l-5 2.4zm360.1 6.8a786 786 0 0 1-1.6 17.8l-1.5 14c-.3 3-1 6.4-1.5 7.5-.5 1.1-1.1 3.6-1.4 5.5a142.7 142.7 0 0 1-5.7 23.7l-1.6 6.6c-.3 1.5-.9 3-1.4 3.3-.5.3-.9 1.6-.9 2.9 0 1.3-.4 2.7-1 3-.5.3-1 1.7-1 3s-.4 2.7-1 3c-.5.3-1 1.3-1 2.1s-.9 3.4-2 5.6a432.8 432.8 0 0 1-24 48.7c0 .5-.9 1.6-2 2.6s-2 2.2-2 2.7c0 2.1-16.8 25-25.6 34.8l-9.4 10.7-3.7 4.1-98.4-98.4-98.4-98.4 1.8-2.7c1-1.6 2.7-4.7 3.8-7.1l2-4.2h278.1l-.6 9.2zm-343.2 10.1l5.8 5.4-2.2 4.9-3 6.9-2.4 5.7-3.2 7.5-4.3 10.5c-.4 1.3-1.8 4.3-3 6.6a30.9 30.9 0 0 0-2.1 5.3c0 .5-1 3.1-2.1 5.7l-3.5 7.9-3 7-2.5 6-1.9 4.8-1.9 4.7c-.9 2.4-2.6 6.3-5.6 13.3-.9 2.2-2.5 5.7-3.6 7.8-1 2.2-1.9 4.5-1.9 5.3 0 .7-.9 2.9-2 4.9-1.1 2-2 4-2 4.5 0 .6-1 3.2-2.1 5.8l-3.5 7.9-3 7c-2.3 5.5-3.6 8.5-4.4 10.8-1 2.8-2.4 6.2-4.9 11.7-1.2 2.6-2.1 5-2.1 5.3l-2.8 6.7-4.2 9.8c-.7 1.9-1.7 3.9-2.2 4.4-.4.6-.8 1.6-.8 2.3 0 .7-.9 3.5-2.1 6.1l-2.9 6.7-2.4 5.7-3.2 7.5-2.4 5.8a95.3 95.3 0 0 1-4.9 11.3 30.9 30.9 0 0 0-2.1 5.3c0 .5-.9 2.8-1.9 5.2l-3.2 7.4c-.8 1.8-1.8 3.3-2.2 3.3-.9 0-9.6-3.8-16.7-7.3-3.7-1.9-13.1-7.3-22.5-13a267.4 267.4 0 0 1-26.7-18.7c-2.9 0-42.1-37.4-49.5-47.2l-11.3-15c-4.7-6.2-9.7-13.1-11.1-15.3a190 190 0 0 1-11.9-20 50.6 50.6 0 0 0-3-5.5c-.3-.3-2-3.7-3.9-7.5l-4.2-8.7c-1-2 .2-3.1 5.6-4.9 2.2-.7 5.5-2.2 7.3-3.1 1.8-1 3.9-1.8 4.7-1.8.9 0 2.3-.4 3.3-1l8.7-4 8.7-4c1-.6 2.2-1 2.8-1 .6 0 3.2-.9 5.8-2.1a144.2 144.2 0 0 1 11.5-4.8l6-2.5 7.5-3.2c3.8-1.7 6.6-2.8 10.5-4.3 3-1.1 6.5-2.6 10.7-4.4 1.9-.9 6-2.5 9-3.7 7.1-2.8 11.5-4.7 16.3-7.1 2.2-1 4.5-1.9 5.2-1.9.7 0 3.3-1 5.7-2.1 2.3-1.2 5.2-2.5 6.3-2.9l6.7-2.9c2.6-1.2 5-2.1 5.3-2.1.3 0 2.7-.9 5.3-2.1l6.7-2.9a93 93 0 0 0 4.8-1.9l5-2a220 220 0 0 0 6.9-3 127.1 127.1 0 0 0 12.3-5.1c3.6-1.7 6.9-3 7.3-3 .5 0 2.7-.9 5-2a23 23 0 0 1 5-2c.5 0 2.2-.6 3.8-1.4l6.4-2.9 8.2-3.6c2.6-1.1 5-2.1 5.3-2.1.3 0 2.7-.9 5.3-2.1l6.7-2.9c3.8-1.4 8-3.2 9.5-4.1 3.2-1.7 5.8-.7 11.4 4.4zm-1054.3 3.3l2.4 2.6-92.2 91.9a5121.5 5121.5 0 0 1-93.6 91.9c-1.9 0-11.9-11.1-23.2-25.6-6.2-8-16.5-23.1-16.5-24.2 0-.5-.9-1.7-2-2.7-1.1-1-2-2.2-2-2.7a49 49 0 0 0-3.8-7.1c-4.9-8-13.2-25.2-13.2-27.2 0-.8.7-1.5 1.5-1.5s2.3-.4 3.3-.9c1.6-.8 3.6-1.7 9.5-4a220 220 0 0 0 6.9-3 140.2 140.2 0 0 0 19.1-8.2c2.2-1 4.4-1.9 5.1-1.9.7 0 3.1-.9 5.4-2a23 23 0 0 1 5-2c.5 0 2.2-.6 3.8-1.4l6.9-3.1c2.2-.9 5.7-2.5 7.8-3.6 2.2-1 4.5-1.9 5.3-1.9.7 0 2.9-.9 4.9-2 2-1.1 4.2-2 4.9-2 .8 0 3.1-.9 5.3-1.9 4.8-2.4 9.2-4.3 16.3-7.1 3-1.2 7.1-2.8 9-3.7 4.6-2 8.1-3.4 10.5-4.3 2.8-1 6.2-2.4 11.7-4.9 2.6-1.2 5-2.1 5.3-2.1.3 0 2.7-.9 5.3-2.1 5.5-2.5 8.9-3.9 11.7-4.9 2.3-.8 5.3-2.1 10.8-4.4l7-3 7.9-3.5c2.6-1.1 5.2-2.1 5.8-2.1.5 0 2.5-.9 4.5-2s4.2-2 4.9-2c.7 0 2.6-.6 4.2-1.4l6.4-2.9 8.2-3.6c2.6-1.1 5.3-2.1 6-2.2.7 0 2.7-.9 4.3-1.9 4.2-2.6 6.8-2.4 9.6.6zm1201.5 99.5l98.2 98.2-9.7 8.4c-12.9 11.4-35.6 28.3-37.9 28.3-.5 0-1.7.9-2.7 2-1 1.1-2.1 2-2.6 2-.4 0-3.6 1.7-7 3.8-3.5 2.1-12.2 6.7-19.2 10.1-12.2 6-12.9 6.2-14.2 4.5a7.4 7.4 0 0 1-1.5-3.2c0-.7-.4-2-.9-3l-1.9-4.2-2.5-6c-.9-1.9-2.3-5.5-3.3-8-.9-2.5-2.1-4.9-2.6-5.4-.4-.6-.8-1.6-.8-2.3 0-.7-.9-3.5-2.1-6.1-2.3-5.1-3.7-8.6-4.9-11.7a337 337 0 0 0-5.6-12.9 14 14 0 0 1-1.4-3.8c0-.4-.9-3-2.1-5.6-2.5-5.5-3.9-8.9-4.9-11.7-1-2.8-2.4-6.2-4.9-11.7-1.2-2.6-2.1-5-2.1-5.3 0-.3-.9-2.7-2.1-5.3-2.3-5.2-3.7-8.5-5-12-1.7-4.4-2.7-6.8-4.8-11.4-1.2-2.6-2.1-5-2.1-5.3 0-.3-.9-2.7-2.1-5.3-2.5-5.5-3.9-8.9-4.9-11.7-1-2.8-2.4-6.2-4.9-11.7a30.7 30.7 0 0 1-2.1-5.6c0-.5-.6-2.2-1.4-3.8l-2.9-6.4-3.6-8.2a37.3 37.3 0 0 1-2.1-5.6c0-.5-.9-2.7-2-5a23 23 0 0 1-2-5c0-.5-.6-2.2-1.4-3.8l-2.9-6.4-3.6-8.2a33.3 33.3 0 0 1-2.1-5.8c0-.5-.9-2.5-2-4.5s-2-4.2-2-4.9c0-.7-.6-2.6-1.4-4.2-4.4-9.2-6.2-14.4-4.9-14.4.4 0 45 44.2 98.9 98.1zm-127.6 46.5v138.6l-11.2-.6c-25.1-1.4-47.6-5-66.3-10.6l-10-3a73 73 0 0 1-9-3l-6.2-2c-3.5-1.1-4.3-1.8-4.3-3.7 0-1.3.4-3.1.9-4.1l2.5-5.5c4.1-9.6 4.9-11.5 6.7-15a27 27 0 0 0 1.9-4.8c0-.6.9-2.9 2-5.1 1.1-2.3 2-4.5 2-5s1-3 2.1-5.6c3.9-8.8 9.1-20.8 11-26 1.7-4.4 2.7-6.8 4.8-11.4a127.1 127.1 0 0 1 5.1-12.3c1.7-3.6 3-6.8 3-7 0-.3.9-2.7 2.1-5.3l2.9-6.7 6.4-15.8 3.2-7.5c.9-2 2.4-5.4 3.5-7.5 1-2.2 1.9-4.5 1.9-5.3 0-.7.9-2.9 2-4.9 1.1-2 2-4 2-4.5 0-.6 1-3.2 2.1-5.8l3.5-8 3-7 2.4-5.7 2-5a172 172 0 0 0 2-5l2.4-5.8 3.2-7.5c.9-2 2.4-5.4 3.5-7.5 1-2.2 1.9-4.5 1.9-5.3 0-.7.9-2.9 2-4.9 1.1-2 2-4.2 2-4.9 0-.8.9-3.1 1.9-5.3 3-5.9 6.1-13.2 6.1-14.1 0-.8 2.1-3.2 2.7-3.2.2 0 .3 62.4.3 138.6zm17.2-133.6l1.8 4.5c1 2.8 2.4 6.2 4.9 11.7 1.2 2.6 2.1 5 2.1 5.3 0 .3.9 2.7 2.1 5.3 2.7 6 4.8 11.2 6.9 16.7l2.3 5.5a2523 2523 0 0 1 14 34c.9 1.9 2.5 6 3.7 9 2.2 5.7 3.3 8.2 6.9 16.2 1.1 2.6 2.1 5.1 2.1 5.6s.9 2.7 2 5a23 23 0 0 1 2 5c0 .5.6 2.2 1.4 3.8l3.1 6.9c.9 2.2 2.5 5.7 3.6 7.8 1 2.2 1.9 4.4 1.9 5.1 0 .7.9 3.1 2 5.4 1.1 2.2 2 4.6 2 5.2 0 .5.4 1.8 1 2.8 1.7 3.1 5 10.6 5 11.4 0 .8 5.4 13.2 7 16 .6 1 1 2.4 1 3.3 0 .8.9 3 2 5s2 4.2 2 4.9c0 .8.9 3.1 1.9 5.3 1.1 2.1 2.7 5.6 3.6 7.8l3.1 6.9a14 14 0 0 1 1.4 3.8c0 .4.9 3 2.1 5.6a220 220 0 0 1 3 6.9c2.3 5.9 3.2 7.9 4 9.5.5 1 .9 2.3.9 3 0 1.5-4.5 3.8-7.1 3.8-1 0-2.1.4-2.4 1-.3.5-1.7 1-3 1s-2.6.4-2.9.9c-.3.4-1.8 1.1-3.3 1.5-1.6.3-6.2 1.5-10.3 2.7-21.7 6.1-39.7 9-65.7 10.5l-11.3.7v-138c0-75.9.3-138.3.7-138.7.4-.4.9-.1 1.1.6l1.4 3.8zm-1063.5 4.5l10.2 5 .1 131.4v131.4l-10.7-.7c-9.8-.6-14.9-1.1-34.1-3.2-3.4-.3-6.5-1-6.8-1.5-.3-.5-2.3-.9-4.5-.9-2.1 0-4.7-.4-5.7-.9-.9-.5-4.2-1.4-7.2-2.1-3-.6-6.6-1.5-8-2l-7-2c-2.5-.6-5.3-1.6-6.2-2.1a10 10 0 0 0-3.7-.9c-1.1 0-2.3-.5-2.6-1-.3-.6-1.5-1-2.6-1-1.9 0-2.8-.4-7.6-2.8a9.5 9.5 0 0 0-3.3-1.2c-2.9 0-33-15-45.3-22.5l-12.8-7.8c-9.2-5.4-42.9-32.6-42.9-34.7 0-.4 41.9-42.6 93.2-93.8 77.9-77.8 93.5-92.8 95.2-92.3 1.2.3 6.7 2.8 12.3 5.6zm31.1 13.4c.9.5 2.4 1.2 3.2 1.4 1.7.5 3.8 4.4 7 13.2.8 2.3 2.1 5.3 4.4 10.7l3.2 7.5 4.7 11.3 2 5 1.7 4.5 2.9 6.7a127.1 127.1 0 0 0 5.1 12.3 45.6 45.6 0 0 1 3.9 10.3l1.9 4.2 2.5 6c.9 1.9 2.5 6 3.7 9 2.2 5.7 3.3 8.2 6.9 16.2 1.1 2.6 2.1 5.1 2.1 5.6s.9 2.7 2 5a23 23 0 0 1 2 5c0 .5.6 2.2 1.4 3.8l3.1 6.9c.9 2.2 2.5 5.7 3.6 7.8 1 2.2 1.9 4.5 1.9 5.3 0 .7.9 2.9 2 4.9 1.1 2 2 4.2 2 4.9 0 .7.6 2.6 1.4 4.2 1.6 3.4 3.1 6.9 7.7 17.9a80 80 0 0 0 4.1 8.9c.4.6.8 1.8.8 2.8 0 .9.9 3.3 2 5.3s2 4.2 2 5c0 .9.4 2.3 1 3.3 1.4 2.5 6.6 14.3 7.4 16.9.6 1.9.4 2.3-1.3 2.3-1.1 0-2.3.4-2.6 1-.3.5-1.7 1-3 1s-2.7.4-3 1c-.3.5-1.5 1-2.6 1-1 0-2.7.4-3.7.9-2.2 1.2-13 4.5-20.2 6.1-3 .7-6.4 1.6-7.5 2.1-1.1.4-3.8 1-6 1.3L709 1765a379 379 0 0 1-34.7 3.6l-10.3.6v-127.6c0-127.2 0-127.6 2-127.6 1.1 0 2.8.4 3.8.9zm29.7 10.1c.3.5 1.9 1 3.5 1s3.2.4 3.5 1c.3.5 1.9 1 3.5 1s3.2.4 3.5 1c.3.5 1.9 1 3.5 1s3.2.4 3.5 1c.3.5 1.4 1 2.3 1 .9 0 35.6 33.9 77 75.3l75.4 75.4-4.8 3.9a346.5 346.5 0 0 1-62.7 44.3l-9.2 4.8c-5.5 3-15.6 7.6-15.8 7.2a18.6 18.6 0 0 1-2.7-5.9c0-.6-.9-3.2-2.1-5.8l-2.9-6.7-4.3-10.5c-.9-1.9-2.5-6-3.7-9-1.2-3-2.8-7.1-3.7-9l-2.3-5.5a93 93 0 0 0-1.9-4.8l-2-5a220 220 0 0 0-3-6.9c-1.2-2.6-2.1-5-2.1-5.3 0-.3-.9-2.7-2.1-5.3l-3-7-1.9-4.7-1.9-4.8a220 220 0 0 0-3-6.9c-1.2-2.6-2.1-5-2.1-5.3 0-.3-.9-2.7-2.1-5.3l-2.9-6.7-2-5c-.7-1.7-1.7-4-2.1-5.3-1.7-4.4-2.7-6.8-4.8-11.4-1.2-2.6-2.1-5-2.1-5.3 0-.3-.9-2.7-2.1-5.3a144.2 144.2 0 0 1-4.8-11.5 220 220 0 0 0-3-6.9 30.7 30.7 0 0 1-2.1-5.6c0-.5-.6-2.2-1.4-3.8l-2.9-6.4-3.6-8.2a33.3 33.3 0 0 1-2.1-5.8c0-.5-.9-2.5-2-4.5s-2-4.4-2-5.3a5 5 0 0 0-.9-2.8 9.4 9.4 0 0 1-1.6-3.2c-.6-1.9-.3-2.2 2.4-2.2 1.6 0 3.3.4 3.6 1zm59 15.2l9 1.5c2.2.3 4.4.9 5 1.4.5.5 2.7.9 5 .9s4.5.4 5.1.9c.5.5 3.2 1.2 5.9 1.5a1344.8 1344.8 0 0 1 36.5 5.6c29.6 4.8 63.8 8.2 99 9.9 22.3 1.1 29 1.9 29 3.7 0 .7-.4 1.6-1 1.9-.5.3-1 1.3-1 2 0 4-18.1 39.8-25.9 51.3a37.5 37.5 0 0 0-4.1 7c0 .5-.9 1.7-2 2.7-1.1 1-2 2.4-2 3.2 0 .7-.4 1.3-.8 1.3s-1.5 1.2-2.4 2.7c-.9 1.6-2.6 3.9-3.8 5.3l-4.8 6c-2.6 3.5-20.2 24-20.5 24-.1 0-30.6-30.4-67.7-67.6a2170.7 2170.7 0 0 1-65.5-67c1.1.4 4.3 1.2 7 1.8z"/>
</svg>
